<svg xmlns="http://www.w3.org/2000/svg" viewBox="0 0 200 200" fill="none" stroke="currentColor" stroke-linecap="round" stroke-linejoin="round" stroke-width="2">
    <!-- Head -->
    <path d="M85 40 C70 35, 60 45, 55 60 S60 85, 75 90"/>
    <path d="M55 60 Q 50 65, 52 75"/>
    <path d="M75 90 C 80 95, 85 105, 80 115"/>
    <path d="M85 40 C 90 35, 100 35, 105 45"/>
    <!-- Ears -->
    <path d="M105 45 C100 35, 110 30, 115 35 Z"/>
    <path d="M95 38 C90 30, 100 25, 105 30 Z"/>
    <!-- Mane -->
    <path d="M105 45 C115 55, 125 65, 130 80"/>
    <path d="M110 50 C120 60, 130 70, 135 85"/>
    <path d="M115 55 C125 65, 135 75, 140 90"/>
    <!-- Neck and Body -->
    <path d="M80 115 C 70 130, 75 150, 90 160 S 120 165, 140 150"/>
    <path d="M105 90 C 120 100, 135 115, 145 130 C 155 145, 150 160, 140 170"/>
</svg>