<svg xmlns="http://www.w3.org/2000/svg" viewBox="0 0 100 100" fill="none" stroke="currentColor" stroke-linecap="round" stroke-linejoin="round" stroke-width="1.5">
    <!-- Center Stamen -->
    <path d="M50 45 Q50 60 50 65"/>
    <path d="M50 45 Q48 50 46 55"/>
    <path d="M50 45 Q52 50 54 55"/>
    <!-- Petals -->
    <path d="M50 65 C 30 60, 20 40, 35 20 S 50 10, 50 10"/>
    <path d="M50 65 C 70 60, 80 40, 65 20 S 50 10, 50 10"/>
    <path d="M50 65 C 40 80, 30 90, 45 95 S 50 85, 50 85"/>
    <path d="M50 65 C 60 80, 70 90, 55 95 S 50 85, 50 85"/>
    <path d="M50 50 C 25 50, 20 60, 30 70"/>
    <path d="M50 50 C 75 50, 80 60, 70 70"/>
</svg>